<svg width="2299" height="1349" viewBox="0 0 2299 1349" fill="none" xmlns="http://www.w3.org/2000/svg">
<path d="M390 1048C422.667 1048 443.333 1042 452 1030C461.333 1018 466 997.667 466 969V775H402V753H690V775H651V1057H636C624 1040.33 607 1032 585 1032C575.667 1032 547.667 1038 501 1050C455 1062 415.667 1068 383 1068C274.333 1068 190 1038.67 130 980C70.6667 921.333 41 833.333 41 716C41 598 72 507 134 443C196.667 379 280.667 347 386 347C426.667 347 467.333 352.333 508 363C549.333 373 573.333 378 580 378C586.667 378 591.667 376.667 595 374C598.333 370.667 602 365.333 606 358H617L625 575H607C574.333 510.333 541.333 459.667 508 423C475.333 385.667 438.667 367 398 367C296 367 245 466.667 245 666V745C245 845 257.333 920.667 282 972C307.333 1022.67 343.333 1048 390 1048ZM757.656 500C757.656 455.333 776.99 418.667 815.656 390C854.323 361.333 912.323 347 989.656 347C1066.99 347 1126.32 361.333 1167.66 390C1209.66 418.667 1230.66 461.667 1230.66 519C1230.66 537.667 1228.99 554.667 1225.66 570C1222.32 584.667 1214.66 600.333 1202.66 617C1191.32 633 1179.99 647.333 1168.66 660C1157.99 672.667 1139.32 689.333 1112.66 710C1072.66 742 1030.66 774 986.656 806C942.656 837.333 916.99 855.667 909.656 861L848.656 905H1088.66C1134.66 905 1167.32 895 1186.66 875C1205.99 855 1219.66 823.667 1227.66 781H1244.66L1234.66 1058H764.656V942L865.656 849C934.323 786.333 982.99 730.667 1011.66 682C1040.32 632.667 1054.66 578.667 1054.66 520C1054.66 460.667 1048.32 420.333 1035.66 399C1022.99 377 1001.66 366 971.656 366C941.656 366 920.656 373.667 908.656 389C896.656 404.333 890.656 419 890.656 433C890.656 447 892.656 459.333 896.656 470H926.656C931.99 484 934.656 501 934.656 521C934.656 540.333 926.323 557.333 909.656 572C892.99 586 870.99 593 843.656 593C816.323 593 794.99 584.333 779.656 567C764.99 549 757.656 526.667 757.656 500Z" fill="#0F172A"/>
<path d="M1985 358H1680V377H1735V693L1727 691L1445 377H1524V358H1349V377H1409L1581 569L1341 1039H1287V1058H1608V1039H1561L1726 720L1735 722V1039H1680V1058H1985V1039H1930V377H1985V358Z" fill="#0F172A"/>
<path d="M2165 1068C2136.33 1068 2114.67 1059.67 2100 1043C2086 1025.67 2079 1005 2079 981C2079 956.333 2086.33 935.667 2101 919C2116.33 902.333 2137.67 894 2165 894C2192.33 894 2214 901 2230 915C2246 929 2254 950 2254 978C2254 1006 2246.33 1028 2231 1044C2216.33 1060 2194.33 1068 2165 1068Z" fill="#2563EB"/>
</svg>
