<svg width="120" height="44" viewBox="0 0 120 44" fill="none" xmlns="http://www.w3.org/2000/svg">
<g clip-path="url(#clip0_2236_2)">
<path fill-rule="evenodd" clip-rule="evenodd" d="M100.285 24.5493H101.936L100.285 19.5143L100.179 19.1754L98.6348 24.5493H100.285ZM100.285 15.87H102.425L107.605 30.1238H103.556L102.79 27.4988H100.285H97.7485L97.0458 30.1238H93.0571L97.9481 15.87H100.285ZM87.06 26.6644C88.3883 26.34 89.2602 25.2756 89.1987 22.912C89.1376 20.6884 88.3443 19.6555 87.06 19.3138C86.7694 19.2363 86.4476 19.1907 86.1274 19.1761H84.9198V26.758H86.0807C86.4169 26.758 86.7538 26.7269 87.06 26.6644ZM87.06 15.9168C88.2825 16.0403 89.2898 16.3962 90.1772 17.0135C91.8417 18.2792 93.0952 20.226 93.1715 23.004C93.0952 26.2633 91.4911 28.3171 89.7345 29.3056C88.9843 29.6768 88.1276 29.9237 87.06 30.0464C86.5394 30.1085 85.9897 30.1238 85.3785 30.1238H81.1761V15.8551H86.0959C86.4169 15.8708 86.7379 15.8858 87.06 15.9168ZM73.5181 15.8708C74.9873 15.9168 76.1622 16.0867 77.1407 16.8122C78.2418 17.6772 78.8056 18.8659 78.8056 20.3636C78.8056 22.5884 77.6602 23.9473 75.5674 24.4416L79.6467 30.1238H75.0783L73.5181 27.6694L71.8078 24.9508V30.1238H68.1105V15.8551H72.4805C72.831 15.8551 73.1824 15.8708 73.5181 15.8708ZM73.5181 22.5569C74.6951 22.4496 75.2149 21.8476 75.2468 20.7352C75.2763 19.6853 74.7877 18.9886 73.5181 18.8659C73.2439 18.8348 72.9384 18.8506 72.6031 18.8659H71.8078V22.5259L72.9843 22.5569C73.168 22.5727 73.3501 22.5727 73.5181 22.5569ZM108.173 15.8551L108.189 24.7841C108.189 28.2364 110.27 30.2005 114.11 30.1238C117.831 30.0464 119.682 28.3898 120 24.8151V15.8551H116.266V24.3854C116.358 25.8277 115.629 26.7332 114.11 26.7792C112.698 26.8103 111.756 26.0573 111.879 24.3854V15.8551H108.173ZM56.533 30.1238H66.0831V27.0706H60.314V24.3236H65.1715V21.3628H60.3288V18.9536H66.0831V15.8551H56.533V30.1238ZM50.9168 30.1109L54.1348 30.1085V21.9467H47.1806V24.7538L50.7795 24.7687C50.0807 26.0431 49.154 27.2401 47.5008 27.2243C45.678 27.3163 43.8872 25.7675 43.8413 23.2038C43.7646 20.4273 45.678 18.9536 47.3798 19.0153C48.426 19.0613 49.6866 19.6283 50.0663 20.7954L53.361 19.2147C51.9642 16.868 49.6866 15.6707 47.5008 15.7627C43.3857 15.7328 40.1366 18.3252 40 23.0508C40 27.5778 43.5378 30.1085 46.5896 30.2929C48.5019 30.3999 50.0508 29.6638 50.9168 28.5439V30.1109Z" fill="#000000"/>
<path d="M33.333 33.333H0V0H33.333V33.333ZM9.96777 15.7578C5.34661 15.758 3.03027 19.6727 3.03027 23.0361C3.03042 26.4011 5.37002 30.3027 10.0381 30.3027C11.7822 30.3027 13.0475 29.6252 13.9453 28.7773V29.9482H16.3633V23.0244H10.0361V25.6279H13.6182C13.1205 26.3707 12.0119 27.5818 10.0635 27.582C7.25024 27.582 5.60661 25.1469 5.60645 23.0361C5.60645 20.9262 7.22604 18.466 10.0146 18.4658C12.7922 18.4658 14.2332 21.2299 14.2451 21.2529L16.3369 19.9727C16.316 19.9225 14.5614 15.7578 9.96777 15.7578ZM23.3652 15.7578C18.7435 15.7581 16.9951 19.9736 16.9951 19.9736L19.0869 21.2529C19.0869 21.2529 20.5299 18.4658 23.3184 18.4658C26.1065 18.4661 27.7263 20.9251 27.7266 23.0352C27.7266 25.1457 26.0836 27.5819 23.2705 27.582C21.3214 27.582 20.2128 26.3707 19.7158 25.6279H23.2959V23.0244H16.9697V29.9473H19.3857V28.7773C20.2855 29.6256 21.5511 30.3027 23.2949 30.3027C27.9636 30.3025 30.3027 26.3999 30.3027 23.0352C30.3025 19.6721 27.9855 15.7578 23.3652 15.7578Z" fill="#000000"/>
<path fill-rule="evenodd" clip-rule="evenodd" d="M42.7167 43.6366C42.1791 43.6366 41.7065 43.5285 41.2966 43.3128C40.8863 43.0971 40.5686 42.7953 40.341 42.4075C40.1138 42.0197 40 41.5731 40 41.0674V38.9027C40 38.4038 40.1138 37.9622 40.341 37.5781C40.5686 37.1933 40.8863 36.8946 41.2966 36.6823C41.7065 36.47 42.1791 36.3638 42.7167 36.3638C43.2601 36.3638 43.7373 36.47 44.1464 36.6823C44.5567 36.8946 44.8744 37.1933 45.102 37.5781C45.3292 37.9622 45.443 38.4038 45.443 38.9027V41.0674C45.443 41.5731 45.3292 42.0216 45.102 42.4125C44.8744 42.8037 44.5567 43.1058 44.1464 43.3181C43.7373 43.5304 43.2601 43.6366 42.7167 43.6366ZM42.7167 42.4125C43.0956 42.4125 43.4017 42.2945 43.6359 42.0584C43.8697 41.8226 43.9869 41.509 43.9869 41.1178V38.8925C43.9869 38.5016 43.8708 38.1862 43.6409 37.947C43.4102 37.7074 43.1022 37.5876 42.7167 37.5876C42.3377 37.5876 42.0328 37.7074 41.8028 37.947C41.5722 38.1862 41.4561 38.5016 41.4561 38.8925V41.1178C41.4561 41.509 41.5722 41.8226 41.8028 42.0584C42.0328 42.2945 42.3377 42.4125 42.7167 42.4125ZM51.5049 38.3159C51.6222 38.3159 51.6802 38.3735 51.6802 38.488V39.3478C51.6802 39.4623 51.6222 39.5203 51.5049 39.5203H50.5648C50.5237 39.5203 50.5032 39.54 50.5032 39.5805V43.3534C50.5032 43.4679 50.4448 43.5255 50.3275 43.5255H49.2229C49.1056 43.5255 49.0464 43.4679 49.0464 43.3534V39.5805C49.0464 39.54 49.0266 39.5203 48.9845 39.5203H48.4372C48.3207 39.5203 48.2618 39.4623 48.2618 39.3478V38.488C48.2618 38.3735 48.3207 38.3159 48.4372 38.3159H48.9845C49.0266 38.3159 49.0464 38.2958 49.0464 38.2552V38.0429C49.0464 37.6251 49.1118 37.2995 49.243 37.0667C49.3738 36.8343 49.5859 36.669 49.8785 36.5712C50.1711 36.4734 50.5756 36.4313 51.0919 36.4446H51.4329C51.5494 36.4446 51.6082 36.5018 51.6082 36.6167V37.3347C51.6082 37.4496 51.5494 37.5068 51.4329 37.5068H51.143C50.9019 37.514 50.7358 37.563 50.6429 37.6536C50.5493 37.7445 50.5032 37.9114 50.5032 38.1544V38.2552C50.5032 38.2958 50.5237 38.3159 50.5648 38.3159H51.5049ZM55.6254 38.4982C55.6254 38.3837 55.6838 38.3261 55.8011 38.3261H56.9061C57.023 38.3261 57.081 38.3837 57.081 38.4982V43.3534C57.081 43.4679 57.023 43.5255 56.9061 43.5255H55.8011C55.6838 43.5255 55.6254 43.4679 55.6254 43.3534V43.0804C55.6254 43.0531 55.6168 43.038 55.599 43.0349C55.5824 43.0315 55.5665 43.0399 55.553 43.06C55.2848 43.4175 54.8613 43.5968 54.2831 43.5968C53.759 43.5968 53.3294 43.441 52.9919 43.1308C52.6548 42.8207 52.486 42.3855 52.486 41.8264V38.4982C52.486 38.3837 52.5445 38.3261 52.661 38.3261H53.7555C53.8732 38.3261 53.932 38.3837 53.932 38.4982V41.4719C53.932 41.7414 54.0056 41.9609 54.1538 42.1293C54.302 42.298 54.5068 42.3821 54.7684 42.3821C55.0018 42.3821 55.1946 42.3131 55.3467 42.1755C55.4972 42.0368 55.5909 41.8563 55.6254 41.6338V38.4982ZM61.2019 39.2974C61.2019 39.4118 61.1431 39.4691 61.0266 39.4691H60.0965C60.0558 39.4691 60.0349 39.4899 60.0349 39.5297V41.6235C60.0349 41.8461 60.081 42.0095 60.1739 42.1141C60.2676 42.2187 60.4166 42.271 60.6236 42.271H60.9128C61.0293 42.271 61.0885 42.3283 61.0885 42.4435V43.3128C61.0885 43.4209 61.0293 43.4815 60.9128 43.4948C60.6511 43.5084 60.4619 43.5153 60.345 43.5153C59.7729 43.5153 59.3468 43.4209 59.0639 43.2325C58.7821 43.0437 58.6373 42.6926 58.6304 42.1801V39.5297C58.6304 39.4899 58.6098 39.4691 58.5684 39.4691H58.0421C57.9248 39.4691 57.8663 39.4118 57.8663 39.2974V38.4982C57.8663 38.3837 57.9248 38.3261 58.0421 38.3261H58.5684C58.6098 38.3261 58.6304 38.306 58.6304 38.2654V37.1224C58.6304 37.0079 58.6892 36.9503 58.8057 36.9503H59.8596C59.9765 36.9503 60.0349 37.0079 60.0349 37.1224V38.2654C60.0349 38.306 60.0558 38.3261 60.0965 38.3261H61.0266C61.1431 38.3261 61.2019 38.3837 61.2019 38.4982V39.2974ZM65.1776 38.4982C65.1776 38.3837 65.2364 38.3261 65.3529 38.3261H66.4583C66.5756 38.3261 66.634 38.3837 66.634 38.4982V43.3534C66.634 43.4679 66.5756 43.5255 66.4583 43.5255H65.3529C65.2364 43.5255 65.1776 43.4679 65.1776 43.3534V43.0804C65.1776 43.0531 65.1695 43.038 65.1521 43.0349C65.135 43.0315 65.1195 43.0399 65.1056 43.06C64.8366 43.4175 64.414 43.5968 63.8349 43.5968C63.312 43.5968 62.882 43.441 62.5445 43.1308C62.2066 42.8207 62.0387 42.3855 62.0387 41.8264V38.4982C62.0387 38.3837 62.0963 38.3261 62.214 38.3261H63.3082C63.4258 38.3261 63.4843 38.3837 63.4843 38.4982V41.4719C63.4843 41.7414 63.5582 41.9609 63.7057 42.1293C63.8539 42.298 64.0594 42.3821 64.3203 42.3821C64.5548 42.3821 64.7476 42.3131 64.8993 42.1755C65.0506 42.0368 65.1428 41.8563 65.1776 41.6338V38.4982ZM70.3512 38.2552C70.5722 38.2552 70.7537 38.2958 70.8985 38.3765C70.9813 38.4171 71.0119 38.488 70.9922 38.5896L70.7959 39.6511C70.7886 39.7117 70.7692 39.7489 70.7383 39.7625C70.7073 39.7758 70.6574 39.7758 70.5892 39.7625C70.4789 39.7356 70.3795 39.7219 70.2893 39.7219C70.2409 39.7219 70.1623 39.7288 70.052 39.7428C69.8039 39.7625 69.5938 39.8524 69.4223 40.0108C69.2501 40.1693 69.1641 40.3797 69.1641 40.6428V43.3534C69.1641 43.4679 69.1057 43.5255 68.9884 43.5255H67.883C67.7665 43.5255 67.7073 43.4679 67.7073 43.3534V38.4982C67.7073 38.3837 67.7665 38.3261 67.883 38.3261H68.9884C69.1057 38.3261 69.1641 38.3837 69.1641 38.4982V38.8117C69.1641 38.8386 69.1711 38.8553 69.1847 38.8621C69.1986 38.869 69.2156 38.8621 69.2365 38.8424C69.5113 38.4508 69.8829 38.2552 70.3512 38.2552ZM73.883 43.6062C73.2986 43.6062 72.7993 43.458 72.3855 43.1612C71.9733 42.8643 71.6904 42.4598 71.5394 41.9473C71.4431 41.6304 71.3947 41.2865 71.3947 40.9157C71.3947 40.5044 71.4465 40.1469 71.5495 39.8433C71.7074 39.3444 71.9923 38.9531 72.401 38.6699C72.8113 38.3867 73.3086 38.2453 73.8938 38.2453C74.4585 38.2453 74.9423 38.3867 75.3449 38.6699C75.7478 38.9531 76.0276 39.341 76.1867 39.8334C76.2892 40.1435 76.3415 40.4976 76.3415 40.8957C76.3415 41.2459 76.2966 41.5864 76.2064 41.917C76.0489 42.4435 75.7648 42.856 75.3549 43.1563C74.9458 43.4561 74.455 43.6062 73.883 43.6062ZM73.883 42.3821C74.104 42.3821 74.2933 42.315 74.4516 42.1801C74.6095 42.0451 74.7229 41.8597 74.7922 41.6235C74.8475 41.4416 74.875 41.2054 74.875 40.9157C74.875 40.6326 74.8475 40.393 74.7922 40.1973C74.7229 39.968 74.6095 39.7898 74.4516 39.6613C74.2933 39.5332 74.097 39.4691 73.8629 39.4691C73.6357 39.4691 73.4429 39.5332 73.2846 39.6613C73.1255 39.7898 73.0121 39.968 72.944 40.1973C72.8887 40.393 72.8612 40.6326 72.8612 40.9157C72.8612 41.1921 72.8887 41.4279 72.944 41.6235C73.0121 41.8597 73.1279 42.0451 73.2896 42.1801C73.4514 42.315 73.6496 42.3821 73.883 42.3821ZM81.4629 43.5968C81.0023 43.5968 80.5994 43.5323 80.2549 43.4038C79.9112 43.2757 79.6461 43.0971 79.4603 42.8678C79.2741 42.6388 79.1812 42.3795 79.1812 42.0887V42.0383C79.1812 41.9238 79.2393 41.8665 79.3569 41.8665H80.3993C80.5169 41.8665 80.575 41.8866 80.575 41.9272V41.9981C80.575 42.1463 80.6574 42.2726 80.8231 42.3772C80.9883 42.4818 81.1985 42.5341 81.4532 42.5341C81.6873 42.5341 81.8766 42.4905 82.0214 42.4026C82.1657 42.315 82.2377 42.2002 82.2377 42.0584C82.2377 41.9378 82.1758 41.8461 82.0523 41.7854C81.9285 41.7248 81.7253 41.6607 81.4431 41.5932C81.1056 41.5056 80.8537 41.4279 80.6884 41.3608C80.2413 41.2122 79.8868 41.0302 79.6248 40.8145C79.3639 40.5988 79.2331 40.2883 79.2331 39.8842C79.2331 39.3849 79.432 38.9888 79.8322 38.6953C80.2313 38.4019 80.7538 38.2552 81.4009 38.2552C81.8422 38.2552 82.2296 38.3246 82.5628 38.4629C82.8969 38.6009 83.155 38.795 83.3377 39.0441C83.5204 39.2939 83.6113 39.5771 83.6113 39.8941C83.6113 39.9278 83.5955 39.9562 83.5649 39.9797C83.5339 40.0036 83.4914 40.0154 83.436 40.0154H82.4239C82.307 40.0154 82.2486 39.9957 82.2486 39.9547V39.8941C82.2486 39.7455 82.1719 39.6207 82.0214 39.5203C81.8696 39.4187 81.6668 39.3679 81.4122 39.3679C81.185 39.3679 80.9965 39.4084 80.8486 39.4899C80.7012 39.5703 80.6268 39.6814 80.6268 39.8232C80.6268 39.9581 80.6977 40.059 80.8386 40.1265C80.9794 40.1939 81.2124 40.2648 81.536 40.3391C81.7357 40.3797 81.9285 40.4301 82.1143 40.4908C82.6093 40.6326 82.9983 40.8145 83.2812 41.0374C83.563 41.2596 83.7038 41.583 83.7038 42.0079C83.7038 42.5072 83.5014 42.8966 83.095 43.1763C82.6886 43.4561 82.1452 43.5968 81.4629 43.5968ZM87.1021 42.4026C87.5565 42.3821 87.904 42.2271 88.1452 41.9378C88.1862 41.8904 88.2311 41.8665 88.2795 41.8665C88.3201 41.8665 88.3584 41.8832 88.3933 41.917L88.9816 42.4735C89.023 42.514 89.0431 42.5546 89.0431 42.5948C89.0431 42.6418 89.0292 42.6824 89.0025 42.7161C88.7749 42.9925 88.4842 43.2101 88.1297 43.3685C87.7752 43.527 87.3877 43.6062 86.9678 43.6062C86.3338 43.6062 85.8094 43.4478 85.3929 43.1308C84.9764 42.8139 84.6958 42.3795 84.5515 41.8264C84.4686 41.5291 84.4276 41.2156 84.4276 40.8854C84.4276 40.4942 84.4648 40.1636 84.541 39.8941C84.6788 39.3952 84.9559 38.9937 85.3724 38.6904C85.7885 38.3867 86.2831 38.2351 86.854 38.2351C87.5286 38.2351 88.0643 38.4311 88.4602 38.8216C88.8558 39.2128 89.1124 39.7625 89.2297 40.4703C89.2568 40.6932 89.2777 40.9393 89.2912 41.2092C89.2912 41.3237 89.2331 41.3809 89.1159 41.3809H85.9448C85.9042 41.3809 85.8829 41.4014 85.8829 41.4416C85.9042 41.583 85.9286 41.6876 85.9557 41.7551C86.0249 41.9643 86.1604 42.1243 86.364 42.2358C86.5668 42.3469 86.813 42.4026 87.1021 42.4026ZM86.8331 39.4691C86.6133 39.4691 86.4286 39.5218 86.2812 39.626C86.1329 39.7303 86.0315 39.877 85.9766 40.0662C85.9421 40.1939 85.9212 40.2789 85.9139 40.319C85.9077 40.3592 85.9247 40.3797 85.9661 40.3797H87.7214C87.7562 40.3797 87.7732 40.366 87.7732 40.3391C87.7732 40.2648 87.7597 40.1871 87.7322 40.1064C87.6703 39.9107 87.5634 39.7557 87.4121 39.6412C87.2604 39.5263 87.0676 39.4691 86.8331 39.4691ZM98.1414 38.2453C98.6786 38.2453 99.0985 38.4038 99.4016 38.7207C99.7039 39.0377 99.856 39.4824 99.856 40.0559V43.3534C99.856 43.4679 99.7975 43.5255 99.6806 43.5255H98.5748C98.4583 43.5255 98.3999 43.4679 98.3999 43.3534V40.3695C98.3999 40.0927 98.3275 39.8736 98.1832 39.7117C98.0384 39.5502 97.8457 39.4691 97.6041 39.4691C97.363 39.4691 97.1676 39.5502 97.0158 39.7117C96.8641 39.8736 96.7886 40.0901 96.7886 40.3592V43.3534C96.7886 43.4679 96.7302 43.5255 96.6133 43.5255H95.5187C95.4015 43.5255 95.343 43.4679 95.343 43.3534V40.3695C95.343 40.0995 95.2668 39.8823 95.1158 39.717C94.9641 39.5521 94.7675 39.4691 94.5267 39.4691C94.3069 39.4691 94.1219 39.5332 93.9748 39.6613C93.8266 39.7898 93.7387 39.968 93.7113 40.1973V43.3534C93.7113 43.4679 93.6532 43.5255 93.5359 43.5255H92.4301C92.314 43.5255 92.2548 43.4679 92.2548 43.3534V38.4982C92.2548 38.3837 92.314 38.3261 92.4301 38.3261H93.5359C93.6532 38.3261 93.7113 38.3837 93.7113 38.4982V38.8216C93.7113 38.8489 93.7194 38.8656 93.7368 38.8728C93.7538 38.8792 93.7693 38.869 93.7832 38.8424C94.0658 38.444 94.4997 38.2453 95.0849 38.2453C95.4286 38.2453 95.7285 38.3143 95.9832 38.4527C96.2379 38.5907 96.4341 38.7912 96.5723 39.0543C96.5789 39.0813 96.5905 39.093 96.6075 39.09C96.6249 39.0866 96.6408 39.0744 96.6539 39.0543C96.813 38.7848 97.0193 38.5824 97.274 38.4474C97.5283 38.3128 97.8174 38.2453 98.1414 38.2453ZM103.233 43.6062C102.648 43.6062 102.148 43.458 101.735 43.1612C101.322 42.8643 101.04 42.4598 100.889 41.9473C100.792 41.6304 100.744 41.2865 100.744 40.9157C100.744 40.5044 100.796 40.1469 100.898 39.8433C101.057 39.3444 101.341 38.9531 101.751 38.6699C102.16 38.3867 102.657 38.2453 103.243 38.2453C103.808 38.2453 104.291 38.3867 104.694 38.6699C105.097 38.9531 105.378 39.341 105.536 39.8334C105.638 40.1435 105.691 40.4976 105.691 40.8957C105.691 41.2459 105.646 41.5864 105.556 41.917C105.398 42.4435 105.114 42.856 104.704 43.1563C104.295 43.4561 103.804 43.6062 103.233 43.6062ZM103.233 42.3821C103.453 42.3821 103.642 42.315 103.8 42.1801C103.959 42.0451 104.072 41.8597 104.142 41.6235C104.197 41.4416 104.224 41.2054 104.224 40.9157C104.224 40.6326 104.197 40.393 104.142 40.1973C104.072 39.968 103.959 39.7898 103.8 39.6613C103.642 39.5332 103.446 39.4691 103.212 39.4691C102.985 39.4691 102.792 39.5332 102.634 39.6613C102.475 39.7898 102.362 39.968 102.293 40.1973C102.238 40.393 102.21 40.6326 102.21 40.9157C102.21 41.1921 102.238 41.4279 102.293 41.6235C102.362 41.8597 102.477 42.0451 102.638 42.1801C102.8 42.315 102.999 42.3821 103.233 42.3821ZM106.827 43.5255C106.71 43.5255 106.651 43.4679 106.651 43.3534V36.6167C106.651 36.5018 106.71 36.4446 106.827 36.4446H107.932C108.049 36.4446 108.107 36.5018 108.107 36.6167V43.3534C108.107 43.4679 108.049 43.5255 107.932 43.5255H106.827ZM112.403 36.6167C112.403 36.5018 112.461 36.4446 112.579 36.4446H113.683C113.801 36.4446 113.86 36.5018 113.86 36.6167V43.3534C113.86 43.4679 113.801 43.5255 113.683 43.5255H112.579C112.461 43.5255 112.403 43.4679 112.403 43.3534V43.0804C112.403 43.0531 112.394 43.038 112.377 43.0349C112.36 43.0315 112.344 43.0399 112.33 43.06C112.049 43.4243 111.656 43.6062 111.153 43.6062C110.685 43.6062 110.271 43.4701 109.909 43.1964C109.548 42.9235 109.298 42.5645 109.16 42.1194C109.043 41.796 108.985 41.3911 108.985 40.9055C108.985 40.4062 109.051 39.9885 109.181 39.6511C109.332 39.22 109.582 38.8758 109.93 38.6199C110.278 38.3632 110.685 38.2351 111.153 38.2351C111.663 38.2351 112.055 38.4 112.33 38.731C112.344 38.7511 112.36 38.7575 112.377 38.7511C112.394 38.7442 112.403 38.7272 112.403 38.7003V36.6167ZM112.186 41.9272C112.324 41.6777 112.393 41.3438 112.393 40.9264C112.393 40.4805 112.321 40.1333 112.176 39.8842C112.004 39.6207 111.773 39.4899 111.484 39.4899C111.167 39.4899 110.926 39.6173 110.761 39.8736C110.596 40.1435 110.513 40.4976 110.513 40.9358C110.513 41.3335 110.586 41.6641 110.73 41.9272C110.895 42.2172 111.147 42.362 111.484 42.362C111.787 42.362 112.021 42.2172 112.186 41.9272ZM117.081 38.2453C117.529 38.2453 117.928 38.3212 118.279 38.4728C118.631 38.6244 118.904 38.8318 119.101 39.0953C119.296 39.3576 119.394 39.6511 119.394 39.9748V43.3534C119.394 43.4679 119.336 43.5255 119.219 43.5255H118.114C117.997 43.5255 117.939 43.4679 117.939 43.3534V43.1108C117.939 43.0838 117.932 43.0683 117.918 43.0653C117.904 43.0615 117.887 43.0702 117.866 43.0907C117.55 43.4341 117.078 43.6062 116.451 43.6062C115.921 43.6062 115.494 43.4781 115.171 43.2218C114.847 42.9656 114.685 42.588 114.685 42.0887C114.685 41.5697 114.871 41.1667 115.243 40.8801C115.615 40.5935 116.145 40.4502 116.833 40.4502H117.876C117.918 40.4502 117.939 40.4301 117.939 40.3899V40.1773C117.939 39.9547 117.868 39.7811 117.727 39.6564C117.585 39.5313 117.38 39.4691 117.112 39.4691C116.906 39.4691 116.735 39.5028 116.601 39.5703C116.467 39.6378 116.376 39.7322 116.327 39.8535C116.286 39.9483 116.217 39.9919 116.12 39.985L114.974 39.8433C114.92 39.8372 114.876 39.8217 114.845 39.7982C114.814 39.7743 114.802 39.7428 114.809 39.7019C114.844 39.4259 114.963 39.1757 115.166 38.9531C115.369 38.731 115.637 38.5577 115.971 38.4322C116.305 38.3075 116.675 38.2453 117.081 38.2453ZM116.875 42.544C117.171 42.544 117.422 42.4667 117.629 42.3116C117.835 42.1566 117.939 41.9575 117.939 41.7149V41.3608C117.939 41.3203 117.918 41.2998 117.876 41.2998H117.143C116.833 41.2998 116.589 41.3574 116.409 41.4719C116.231 41.5864 116.142 41.749 116.142 41.9575C116.142 42.1395 116.209 42.2828 116.343 42.3874C116.477 42.4917 116.654 42.544 116.875 42.544Z" fill="#000000"/>
</g>
<defs>
<clipPath id="clip0_2236_2">
<rect width="120" height="44" fill="white"/>
</clipPath>
</defs>
</svg>

