<svg width="416" height="83" viewBox="0 0 416 83" fill="none" xmlns="http://www.w3.org/2000/svg">
<g clip-path="url(#clip0_2232_9)">
<path fill-rule="evenodd" clip-rule="evenodd" d="M388.915 45.3341H415.41V38.0641H396.867V4.48475H388.915V45.3341ZM372.822 45.3286H380.809V8.50129C380.809 6.22666 379.172 4.49028 377.024 4.49028H352.999C350.907 4.49028 349.269 6.22666 349.269 8.50129V45.3286H357.221V28.5767H372.822V45.3286ZM357.204 20.7316H372.807V12.3077H357.204V20.7316ZM341.738 41.3857V25.2679C341.738 23.0523 340.097 21.2532 337.951 21.2532H317.756V12.3796H341.738V8.50129C341.738 6.22851 340.097 4.49028 337.951 4.49028H313.596C311.506 4.49028 309.867 6.22851 309.867 8.50129V25.0873C309.867 27.3029 311.506 29.1315 313.596 29.1315H333.718V37.4153H309.867V41.3857C309.867 43.5995 311.506 45.3359 313.596 45.3359H337.951C340.097 45.3359 341.738 43.5995 341.738 41.3857ZM296.078 67.2896C296.078 65.92 297.052 65.0998 298.938 65.0998C300.916 65.0998 301.858 66.0104 301.858 67.8057H306.299C306.299 63.4574 303.895 61.3892 299.03 61.3892C294.102 61.3892 291.515 63.5164 291.515 67.7449C291.515 71.5163 293.25 73.2195 297.842 73.9494C300.916 74.4361 302.011 75.166 302.011 76.8692C302.011 78.3605 301.006 79.0886 298.998 79.0886C296.779 79.0886 295.652 78.2075 295.652 76.2001H291.211C291.211 80.7328 293.615 82.801 298.877 82.801C304.048 82.801 306.574 80.7015 306.574 76.4139C306.574 72.5209 304.9 70.6647 300.064 69.9661C297.144 69.5403 296.078 68.8398 296.078 67.2896ZM294.325 45.3286H302.311V28.6375C302.311 26.3076 298.786 24.6836 296.639 24.6873C298.786 24.6873 302.311 23.1113 302.311 20.6726V8.50129C302.311 6.22298 300.672 4.48659 298.528 4.48659H269.111V45.3286H277.096V28.5767H294.325V45.3286ZM277.098 20.7316H294.258V12.3059H277.098V20.7316ZM232.288 45.3341H261.653V37.4466H240.237V28.5767H260.298V20.6966H240.237V12.339H261.653V4.48659H232.288V45.3341ZM216.676 45.3341H224.653V8.27457C224.653 5.97229 222.996 4.21194 220.822 4.21194H186.618C184.502 4.21194 182.843 5.97229 182.843 8.27457L182.844 45.3341H190.881V12.0607H199.714V45.3378H207.859V12.081H216.676V45.3341ZM187.662 74.8011L180.636 61.7542H175.798V82.436H180.118V68.5062L187.632 82.436H191.982V61.7542H187.662V74.8011ZM167.124 45.3378H175.142V4.48843H167.124V20.6615H151.392V4.48843H143.422V45.3378H151.392V28.5767H167.124V45.3378ZM112.736 45.3378H137.118V37.4503H116.996V12.3575H137.118V4.48659H112.736C110.647 4.48659 109.008 6.22298 109.008 8.49945V41.3839C109.008 43.5995 110.647 45.3378 112.736 45.3378ZM104.585 61.7542V69.9347H97.4667V61.7542H92.9036V82.436H97.4667V73.8886H104.585V82.436H109.148V61.7542H104.585ZM102.325 41.3821V25.2495C102.325 23.0339 100.686 21.2366 98.5397 21.2366H78.477V12.3759H102.325V8.50129C102.325 6.22666 100.686 4.48843 98.5397 4.48843H74.1831C72.0943 4.48843 70.4553 6.22666 70.4553 8.50129V25.067C70.4553 27.2863 72.0943 29.1167 74.1831 29.1167H94.3048V37.4356H70.4553V41.3821C70.4553 43.5995 72.0943 45.3378 74.1831 45.3378H98.5397C100.686 45.3378 102.325 43.5995 102.325 41.3821ZM86.0895 61.7542H70.4534V65.7376H75.9899V82.436H80.553V65.7376H86.0895V61.7542ZM42.015 37.3968V12.1934C42.015 5.46169 36.556 0 29.8211 0H12.1958C5.46091 0 0 5.46169 0 12.1934V37.3968C0 44.1304 5.46091 49.5903 12.1958 49.5903H29.8211C36.556 49.5903 42.015 44.1304 42.015 37.3968ZM40.2599 37.1775C40.2599 43.0152 35.5272 47.7451 29.6884 47.7451H12.3451C6.5081 47.7451 1.77544 43.0152 1.77544 37.1775V12.4054C1.77544 6.56952 6.5081 1.83961 12.3451 1.83961H29.6884C35.5272 1.83961 40.2599 6.56952 40.2599 12.4054V37.1775ZM19.1519 11.9943V14.0091C18.4476 14.5584 17.9941 15.4173 17.9941 16.3777C17.9941 18.0404 19.3399 19.3823 20.9992 19.3823C22.6585 19.3823 24.0062 18.0404 24.0062 16.3777C24.0062 15.4173 23.5508 14.5584 22.8447 14.0091V11.9943H19.1519ZM29.5722 21.9463H28.2743L30.5623 17.2957L27.2455 15.657L24.2422 21.9463H12.2787C10.9329 21.9463 9.83959 20.3629 9.83959 19.0155V12.1326C9.83959 10.7851 10.9329 9.69391 12.2787 9.69391H29.6238C30.9697 9.69391 32.0648 10.7851 32.0648 12.1326L32.063 16.1934L37.9756 16.2137L37.9645 12.61C37.9645 7.97042 34.2053 4.20641 29.5648 4.20641H12.4908C7.85213 4.20641 4.09107 7.97042 4.09107 12.61V18.5694C4.09107 23.209 7.85397 27.4633 12.4944 27.4633H21.556L20.2065 30.1342C18.9915 30.4882 17.9738 31.5296 17.9738 32.9785C17.9738 33.9204 18.4126 34.7572 19.1003 35.3047V37.2199H22.7618V35.2549C23.4199 34.7148 23.8403 33.889 23.8403 32.9711C23.8403 32.4974 23.7315 32.0568 23.5361 31.6605L25.601 27.4633H29.6238C30.9697 27.4633 32.0648 28.5324 32.0648 29.8928V37.3544C32.0648 38.713 30.9697 39.8171 29.6238 39.8171H12.2787C10.9329 39.8171 9.83959 38.713 9.83959 37.3544V33.5056L4.09107 33.4596V36.9305C4.09107 41.5701 7.85213 45.3304 12.4908 45.3304H29.5648C34.2053 45.3304 37.9645 41.5701 37.9645 36.9305V30.3425C37.9645 25.7048 34.2109 21.9463 29.5722 21.9463ZM132.236 61.7542H118.06V82.436H132.54V78.5116H122.623V73.8573H130.715V69.9661H122.623V65.6767H132.236V61.7542ZM159.614 61.7542H151.919V82.436H159.614C165.182 82.436 167.645 79.9107 167.645 74.2849V69.9034C167.645 64.309 165.182 61.7542 159.614 61.7542ZM158.977 65.6472C162.048 65.6472 163.082 66.7716 163.082 69.9956V74.1928C163.082 77.4167 162.048 78.543 158.977 78.543H156.482V65.6472H158.977ZM205.61 61.7542L198.674 82.436H203.298L204.605 78.2683H211.115L212.424 82.436H217.26L210.324 61.7542H205.61ZM205.732 74.4674L207.861 66.9246L209.99 74.4674H205.732ZM234.874 69.8131V74.3753C234.874 80.154 237.52 82.801 243.239 82.801C248.958 82.801 251.605 80.154 251.605 74.3753V69.8131C251.605 64.0343 248.958 61.3892 243.239 61.3892C237.52 61.3892 234.874 64.0343 234.874 69.8131ZM239.437 69.8739C239.437 66.6205 240.501 65.3118 243.239 65.3118C245.977 65.3118 247.042 66.6205 247.042 69.8739V74.3144C247.042 77.5697 245.977 78.8766 243.239 78.8766C240.501 78.8766 239.437 77.5697 239.437 74.3144V69.8739ZM273.72 61.7542H259.788V82.436H264.351V74.0711H272.199V70.1486H264.351V65.6767H273.72V61.7542ZM318.832 61.7542L311.897 82.436H316.521L317.828 78.2683H324.338L325.647 82.436H330.482L323.547 61.7542H318.832ZM318.954 74.4674L321.084 66.9246L323.213 74.4674H318.954ZM351.107 61.7542H337.175V82.436H341.738V74.0711H349.586V70.1486H341.738V65.6767H351.107V61.7542ZM372.553 61.7542H358.377V82.436H372.857V78.5116H362.94V73.8573H371.032V69.9661H362.94V65.6767H372.553V61.7542ZM394.122 61.7542H378.486V65.7376H384.022V82.436H388.585V65.7376H394.122V61.7542ZM403.187 61.7542H397.984L404.738 73.8278V82.436H409.301V73.7375L416.024 61.7542H411.218L407.203 69.2361L403.187 61.7542Z" fill="white"/>
</g>
<defs>
<clipPath id="clip0_2232_9">
<rect width="416" height="83" fill="white"/>
</clipPath>
</defs>
</svg>
